<?xml version="1.0" encoding="UTF-8" standalone="no"?>
<!-- Created with Inkscape (http://www.inkscape.org/) -->

<svg
   width="115.53036mm"
   height="33.53318mm"
   viewBox="0 0 115.53036 33.53318"
   version="1.1"
   id="svg5"
   inkscape:version="1.1.1 (3bf5ae0d25, 2021-09-20)"
   sodipodi:docname="logo.svg"
   xmlns:inkscape="http://www.inkscape.org/namespaces/inkscape"
   xmlns:sodipodi="http://sodipodi.sourceforge.net/DTD/sodipodi-0.dtd"
   xmlns="http://www.w3.org/2000/svg"
   xmlns:svg="http://www.w3.org/2000/svg">
  <sodipodi:namedview
     id="namedview7"
     pagecolor="#ffffff"
     bordercolor="#666666"
     borderopacity="1.0"
     inkscape:pageshadow="2"
     inkscape:pageopacity="0.0"
     inkscape:pagecheckerboard="0"
     inkscape:document-units="mm"
     showgrid="false"
     fit-margin-top="0"
     fit-margin-left="0"
     fit-margin-right="0"
     fit-margin-bottom="0"
     inkscape:zoom="1.0809568"
     inkscape:cx="352.46553"
     inkscape:cy="117.95106"
     inkscape:window-width="1920"
     inkscape:window-height="1017"
     inkscape:window-x="1912"
     inkscape:window-y="-8"
     inkscape:window-maximized="1"
     inkscape:current-layer="layer1" />
  <defs
     id="defs2" />
  <g
     inkscape:label="Livello 1"
     inkscape:groupmode="layer"
     id="layer1"
     transform="translate(-22.763399,-103.78152)">
    <rect
       style="fill:none;stroke:none;stroke-width:12;stroke-linecap:square;paint-order:stroke fill markers"
       id="rect9928"
       width="115.53036"
       height="33.53318"
       x="22.763399"
       y="103.78152"
       inkscape:export-filename="C:\Users\FrancescoCottone\Desktop\KesieV\stuff-2024\bubu\markdown\logo.png"
       inkscape:export-xdpi="131.91"
       inkscape:export-ydpi="131.91" />
    <g
       id="g10211">
      <path
         id="path10165"
         style="color:#000000;font-size:25.9449px;-inkscape-font-specification:'Kitchen Sink Gold';fill:#ffffff;stroke:none;stroke-width:18.8976;-inkscape-stroke:none;paint-order:stroke fill markers"
         d="m 198.13672,402.12891 c -4.81626,0 -9.83547,1.59393 -13.66406,4.67968 l -0.043,0.0293 -0.0449,0.0391 c -3.7695,3.11271 -6.5918,8.37598 -6.5918,13.53711 v 70.45117 c 0,5.16114 2.84073,10.43967 6.62891,13.53907 l 0.0449,0.0371 0.043,0.0391 c 3.83134,3.05938 8.82736,4.62109 13.62695,4.62109 h 21.78516 c 7.80749,0 15.37765,-2.43804 21.31835,-7.23437 1.14216,-0.91972 2.21041,-1.93465 3.19141,-3.02735 0.96904,1.08271 2.02397,2.08922 3.15039,3.00391 l 0.006,0.008 0.008,0.008 c 5.94716,4.80691 13.53304,7.24218 21.35742,7.24218 h 10.89454 c 7.80749,0 15.37765,-2.43804 21.31836,-7.23437 0.1219,-0.0982 0.24112,-0.20048 0.36132,-0.30078 0.82673,1.06647 1.75034,2.02797 2.74024,2.83789 l 0.043,0.0371 0.0449,0.0391 c 3.83134,3.05938 8.82737,4.62109 13.62695,4.62109 h 21.7832 c 7.8075,0 15.37961,-2.43804 21.32032,-7.23437 1.14248,-0.91999 2.20821,-1.93623 3.18945,-3.0293 0.96955,1.08349 2.02325,2.09059 3.15039,3.00586 l 0.008,0.008 0.008,0.008 c 5.94715,4.80691 13.53109,7.24218 21.35547,7.24218 h 10.89648 c 7.80748,0 15.37766,-2.43804 21.31836,-7.23437 5.96133,-4.80034 9.91402,-12.18156 9.91406,-19.80664 v -66.07617 c -4e-5,-3.97346 -2.3525,-8.20913 -5.09375,-10.4375 -2.7532,-2.24418 -6.48689,-3.41797 -9.78906,-3.41797 H 405.125 c -3.29696,0 -7.02739,1.17297 -9.7793,3.41015 -0.42157,0.34205 -0.70558,0.97333 -1.10156,1.40235 -0.39371,-0.42652 -0.67276,-1.05389 -1.0918,-1.39453 -2.77118,-2.25876 -6.51143,-3.41797 -9.81054,-3.41797 h -10.89649 c -3.30962,0 -7.03093,1.16412 -9.78125,3.38086 l -0.0293,0.0215 -0.0293,0.0234 c -0.95417,0.7807 -1.85284,1.80892 -2.62305,2.98047 -5.75068,-4.24893 -12.87978,-6.4043 -20.2168,-6.4043 l -21.7832,-0.002 c -4.12916,0 -8.40579,1.1742 -11.95508,3.45312 -0.0137,-0.0113 -0.0273,-0.024 -0.041,-0.0351 -2.75316,-2.24414 -6.48493,-3.41797 -9.78711,-3.41797 h -10.91797 c -3.29698,0 -7.02932,1.17294 -9.78125,3.41015 -0.42159,0.34205 -0.70361,0.97333 -1.09961,1.40235 -0.39369,-0.42652 -0.67472,-1.05389 -1.09375,-1.39453 -2.77119,-2.2588 -6.51143,-3.41797 -9.81055,-3.41797 h -10.89453 c -3.30962,0 -7.03093,1.16416 -9.78125,3.38086 l -0.0293,0.0215 -0.0293,0.0234 c -0.95417,0.7807 -1.85479,1.80892 -2.625,2.98047 -5.75068,-4.24893 -12.87783,-6.4043 -20.21484,-6.4043 z m 0,18.89648 h 10.44531 c -1.20277,0.32277 -2.47331,0.24334 -3.60937,0.7832 l -5.38868,2.56836 v 27.26172 l 5.38868,2.5625 c 2.06295,0.98041 4.32866,1.13984 6.55468,1.42383 -2.22638,0.28384 -4.4914,0.44327 -6.55468,1.42383 l -5.38868,2.57031 v 27.26172 l 5.38868,2.56055 c 1.09894,0.52225 2.33018,0.44088 3.49218,0.75976 h -10.32812 c -0.97117,0 -1.14218,-0.17965 -1.44531,-0.39062 v -68.38672 c 0.3055,-0.2211 0.46774,-0.39844 1.44531,-0.39844 z m 58.48047,0 h 2.88672 v 65.85547 l 5.39453,2.56055 c 0.77892,0.37001 1.65925,0.27196 2.47265,0.53906 -3.24884,-0.24945 -5.71703,-1.06549 -7.88281,-2.8125 -2.56148,-2.07999 -2.87109,-3.01336 -2.87109,-5.10938 z m 32.67969,0 h 2.88476 v 61.0332 c 0,2.11068 -0.30968,3.02537 -2.87109,5.08789 l -0.008,0.006 -0.006,0.008 c -2.16319,1.74844 -4.61771,2.5576 -7.83399,2.8125 0.78956,-0.26041 1.65137,-0.15952 2.4082,-0.51563 l 5.42579,-2.55469 z m 28.68554,0 h 10.44531 c -1.20276,0.32277 -2.47331,0.24334 -3.60937,0.7832 l -5.38867,2.56836 v 27.26172 l 5.38867,2.5625 c 2.06295,0.98041 4.32867,1.13984 6.55469,1.42383 -2.22639,0.28384 -4.4914,0.44327 -6.55469,1.42383 l -5.38867,2.57031 v 27.26172 l 5.38867,2.56055 c 1.09894,0.52225 2.32823,0.44088 3.49023,0.75976 h -10.32617 c -0.97116,0 -1.14413,-0.17965 -1.44726,-0.39062 v -68.38672 c 0.3055,-0.2211 0.46969,-0.39844 1.44726,-0.39844 z m 58.47852,0 h 2.88672 v 65.85547 l 5.39648,2.56055 c 0.77892,0.37001 1.65926,0.27196 2.47266,0.53906 -3.24885,-0.24945 -5.717,-1.06549 -7.88282,-2.8125 -2.56146,-2.07999 -2.87304,-3.01336 -2.87304,-5.10938 z m 32.67968,0 h 2.88672 v 61.0332 c 0,2.11064 -0.30982,3.02533 -2.87109,5.08789 l -0.008,0.006 -0.008,0.008 c -2.16317,1.74844 -4.61576,2.5576 -7.83203,2.8125 0.78955,-0.26041 1.6494,-0.15952 2.40625,-0.51563 l 5.42578,-2.55469 z m -187.88281,0.18555 c 3.38217,0.21694 5.88077,1.06267 8.08985,2.86328 l 0.0234,0.0156 0.0215,0.0156 c 2.56138,2.06252 2.86328,2.98307 2.86328,5.09375 v 16.57812 c -0.31007,0.2264 -0.47592,0.40039 -1.43945,0.40039 v 18.89649 c 0.96125,0 1.13129,0.18085 1.43945,0.39844 v 16.58789 c 0,2.11067 -0.30188,3.02341 -2.86328,5.08593 l -0.008,0.008 -0.008,0.008 c -2.16146,1.74705 -4.61982,2.55666 -7.83203,2.8125 0.78778,-0.26003 1.64522,-0.16223 2.40039,-0.51758 l 5.42383,-2.55469 v -27.3125 l -5.42383,-2.55468 c -2.0547,-0.96692 -4.30939,-1.12613 -6.52734,-1.41016 2.21759,-0.28422 4.47297,-0.44144 6.52734,-1.4082 l 5.42383,-2.55469 v -27.3125 l -5.42383,-2.55469 c -0.84622,-0.39821 -1.80127,-0.30543 -2.6875,-0.58398 z m 119.84375,0 c 3.38217,0.21694 5.88273,1.06267 8.0918,2.86328 l 0.0215,0.0156 0.0234,0.0156 c 2.56138,2.06252 2.86328,2.98307 2.86328,5.09375 v 16.57812 c -0.31007,0.2264 -0.47593,0.40039 -1.43945,0.40039 v 18.89649 c 0.96125,0 1.1313,0.18085 1.43945,0.39844 v 16.58789 c 0,2.11067 -0.30189,3.02341 -2.86328,5.08593 l -0.008,0.008 -0.008,0.008 c -2.16198,1.74746 -4.6186,2.55697 -7.83204,2.8125 0.78778,-0.26003 1.64327,-0.16223 2.39844,-0.51758 l 5.42578,-2.55469 v -27.3125 l -5.42578,-2.55468 c -2.0547,-0.96692 -4.30743,-1.12613 -6.52539,-1.41016 2.21759,-0.28422 4.47103,-0.44144 6.52539,-1.4082 l 5.42578,-2.55469 v -27.3125 l -5.42578,-2.55469 c -0.84622,-0.39821 -1.80127,-0.30543 -2.6875,-0.58398 z"
         transform="scale(0.26458333)" />
      <path
         id="path10167"
         style="color:#000000;font-size:25.9449px;-inkscape-font-specification:'Kitchen Sink Gold';fill:#000000;stroke:none;stroke-width:18.8976;-inkscape-stroke:none;paint-order:stroke fill markers"
         d="m 198.13672,411.57617 c -3.01648,0 -5.59376,0.86222 -7.73242,2.58594 -2.10675,1.73967 -3.16016,3.82212 -3.16016,6.24805 v 70.45703 c 0,2.42595 1.05341,4.50092 3.16016,6.22461 2.13866,1.70774 4.71594,2.56054 7.73242,2.56054 h 21.78516 c 6.01699,0 11.14911,-1.71505 15.39453,-5.14648 4.26137,-3.43146 6.39257,-7.58136 6.39257,-12.44922 V 464.4375 c 0,-2.44193 -1.06284,-4.52436 -3.18554,-6.24805 -2.13867,-1.70774 -4.70847,-2.5625 -7.70899,-2.5625 3.00052,0 5.57032,-0.86222 7.70899,-2.58593 2.1227,-1.7237 3.18554,-3.79866 3.18554,-6.22461 v -17.61914 c 0,-4.86788 -2.1312,-9.01779 -6.39257,-12.44922 -4.22946,-3.44741 -9.36158,-5.17188 -15.39453,-5.17188 z m 54.46484,0 c -1.50026,0 -2.78613,0.43111 -3.85547,1.29297 -1.05337,0.86186 -1.58007,1.90031 -1.58007,3.11328 v 66.07422 c 0,4.85191 2.12372,9.00181 6.36914,12.44922 4.24541,3.43143 9.38501,5.14648 15.41796,5.14648 h 10.89258 c 6.017,0 11.14717,-1.71505 15.39258,-5.14648 4.26137,-3.43146 6.39258,-7.58136 6.39258,-12.44922 v -66.07422 c 0,-1.21297 -0.53418,-2.25142 -1.60352,-3.11328 -1.05337,-0.86186 -2.33177,-1.29297 -3.83203,-1.29297 H 285.2793 c -1.50026,0 -2.77671,0.43111 -3.83008,1.29297 -1.06933,0.86186 -1.60352,1.90031 -1.60352,3.11328 v 64.92578 c -1.62794,0.76609 -3.448,1.14844 -5.45898,1.14844 -2.01099,0 -3.82162,-0.38235 -5.4336,-1.14844 v -64.92578 c 10e-6,-1.21297 -0.53613,-2.25142 -1.60546,-3.11328 -1.05338,-0.86186 -2.3373,-1.29297 -3.85352,-1.29297 z m 65.38086,0 c -3.01648,0 -5.59375,0.86222 -7.73242,2.58594 -2.10675,1.73967 -3.16016,3.82212 -3.16016,6.24805 v 70.45703 c 0,2.42595 1.05341,4.50092 3.16016,6.22461 2.13867,1.70774 4.71594,2.56054 7.73242,2.56054 h 21.78516 c 6.01699,0 11.14912,-1.71505 15.39453,-5.14648 4.26137,-3.43146 6.39062,-7.58136 6.39062,-12.44922 V 464.4375 c 0,-2.44193 -1.06088,-4.52436 -3.18359,-6.24805 -2.13867,-1.70774 -4.70847,-2.5625 -7.70898,-2.5625 3.00051,0 5.57031,-0.86222 7.70898,-2.58593 2.12271,-1.7237 3.18359,-3.79866 3.18359,-6.22461 v -17.61914 c 0,-4.86788 -2.12925,-9.01779 -6.39062,-12.44922 -4.22945,-3.44741 -9.36158,-5.17188 -15.39453,-5.17188 z m 54.46289,0 c -1.50026,0 -2.78418,0.43111 -3.85351,1.29297 -1.05338,0.86186 -1.58008,1.90031 -1.58008,3.11328 v 66.07422 c 0,4.85191 2.12177,9.00181 6.36719,12.44922 4.24541,3.43143 9.38501,5.14648 15.41797,5.14648 h 10.89257 c 6.01699,0 11.14912,-1.71505 15.39453,-5.14648 4.2614,-3.43146 6.39258,-7.58136 6.39258,-12.44922 v -66.07422 c 0,-1.21297 -0.53611,-2.25142 -1.60547,-3.11328 -1.05335,-0.86186 -2.3298,-1.29297 -3.83007,-1.29297 H 405.125 c -1.50025,0 -2.7767,0.43111 -3.83008,1.29297 -1.06933,0.86186 -1.60547,1.90031 -1.60547,3.11328 v 64.92578 c -1.62794,0.76609 -3.44604,1.14844 -5.45703,1.14844 -2.01098,0 -3.82358,-0.38235 -5.43554,-1.14844 v -64.92578 c 0,-1.21297 -0.53419,-2.25142 -1.60352,-3.11328 -1.05338,-0.86186 -2.3373,-1.29297 -3.85352,-1.29297 z m -157.98047,17.6211 c 2.01099,0 3.8291,0.38235 5.45704,1.14843 v 15.32227 c -1.62794,0.76608 -3.44605,1.14844 -5.45704,1.14844 -2.01098,0 -3.82356,-0.38236 -5.43554,-1.14844 V 430.3457 c 1.61198,-0.76608 3.42456,-1.14843 5.43554,-1.14843 z m 119.84375,0 c 2.01099,0 3.83105,0.38235 5.45899,1.14843 v 15.32227 c -1.62794,0.76608 -3.448,1.14844 -5.45899,1.14844 -2.01098,0 -3.82161,-0.38236 -5.43359,-1.14844 V 430.3457 c 1.61198,-0.76608 3.42261,-1.14843 5.43359,-1.14843 z M 214.46484,464.4375 c 2.01099,0 3.8291,0.38235 5.45704,1.14844 v 15.32226 c -1.62794,0.76609 -3.44605,1.14844 -5.45704,1.14844 -2.01098,0 -3.82356,-0.38235 -5.43554,-1.14844 v -15.32226 c 1.61198,-0.76609 3.42456,-1.14844 5.43554,-1.14844 z m 119.84375,0 c 2.01099,0 3.83105,0.38235 5.45899,1.14844 v 15.32226 c -1.62794,0.76609 -3.448,1.14844 -5.45899,1.14844 -2.01098,0 -3.82161,-0.38235 -5.43359,-1.14844 v -15.32226 c 1.61198,-0.76609 3.42261,-1.14844 5.43359,-1.14844 z"
         transform="scale(0.26458333)" />
    </g>
  </g>
</svg>
